name C:\Users\u0101727\Documents\MyRepositories\upper-imu-dc\Results\main_mocap_tracking\Case_8\FLX01_linearAccelerations.mot
datacolumns 4
datarows 117
range 0.51000000 1.67000000
endheader 
time	radius_imu_x	radius_imu_y	radius_imu_z	
          0.51000000	         -4.25542151	         10.03917106	          6.36596799	
          0.52000000	         -2.86364799	          9.80615003	          4.93457299	
          0.53000000	         -1.98880936	          9.73789445	          4.05073235	
          0.54000000	         -1.49508324	          9.67353697	          3.58306923	
          0.55000000	         -1.24417405	          9.61329093	          3.41184238	
          0.56000000	         -1.13027892	          9.56796569	          3.42219185	
          0.57000000	         -1.09539831	          9.54088759	          3.52143647	
          0.58000000	         -1.12036906	          9.52837893	          3.64790512	
          0.59000000	         -1.20511662	          9.52376280	          3.76909872	
          0.60000000	         -1.35295464	          9.52390840	          3.87335530	
          0.61000000	         -1.55907075	          9.52847009	          3.95835844	
          0.62000000	         -1.80001367	          9.54360607	          4.02121440	
          0.63000000	         -2.03143493	          9.57314274	          4.05725474	
          0.64000000	         -2.20397202	          9.62437173	          4.06021506	
          0.65000000	         -2.28458625	          9.69948526	          4.02688560	
          0.66000000	         -2.27682454	          9.79284761	          3.95789709	
          0.67000000	         -2.22399199	          9.89224207	          3.85803179	
          0.68000000	         -2.19152229	          9.98266260	          3.73511113	
          0.69000000	         -2.24079627	         10.05127676	          3.59850745	
          0.70000000	         -2.40782177	         10.09126715	          3.45812842	
          0.71000000	         -2.69617625	         10.10324623	          3.32371587	
          0.72000000	         -3.08307920	         10.09430380	          3.20414072	
          0.73000000	         -3.53174714	         10.07561759	          3.10649909	
          0.74000000	         -4.00385856	         10.05955494	          3.03507843	
          0.75000000	         -4.46859810	         10.05689985	          2.99062775	
          0.76000000	         -4.90688284	         10.07473558	          2.97051602	
          0.77000000	         -5.31152592	         10.11530284	          2.96990010	
          0.78000000	         -5.68544656	         10.17563145	          2.98322354	
          0.79000000	         -6.03943086	         10.24757149	          3.00504012	
          0.80000000	         -6.38862532	         10.31901830	          3.02979022	
          0.81000000	         -6.74719055	         10.37717020	          3.05132468	
          0.82000000	         -7.12174206	         10.41351932	          3.06322325	
          0.83000000	         -7.50627392	         10.42810017	          3.06003509	
          0.84000000	         -7.88101789	         10.43078789	          3.03866071	
          0.85000000	         -8.21717195	         10.43901182	          2.99884976	
          0.86000000	         -8.48663310	         10.47297139	          2.94239964	
          0.87000000	         -8.67263636	         10.54998829	          2.87141991	
          0.88000000	         -8.77590935	         10.67949224	          2.78657709	
          0.89000000	         -8.81311164	         10.86056251	          2.68628603	
          0.90000000	         -8.80900200	         11.08345734	          2.56679536	
          0.91000000	         -8.78513895	         11.33479569	          2.42375077	
          0.92000000	         -8.75085952	         11.60274063	          2.25387414	
          0.93000000	         -8.70027472	         11.87802604	          2.05548267	
          0.94000000	         -8.61117226	         12.15336322	          1.82935191	
          0.95000000	         -8.44765728	         12.42226324	          1.57940467	
          0.96000000	         -8.16444972	         12.68083285	          1.31457063	
          0.97000000	         -7.71574624	         12.92836489	          1.05130784	
          0.98000000	         -7.06917495	         13.16586772	          0.81511795	
          0.99000000	         -6.22319279	         13.39308528	          0.63776333	
          1.00000000	         -5.22145794	         13.60541112	          0.54912361	
          1.01000000	         -4.15248547	         13.79068806	          0.56290539	
          1.02000000	         -3.14133005	         13.94659884	          0.68892727	
          1.03000000	         -2.29652839	         14.08143154	          0.92547103	
          1.04000000	         -1.68629685	         14.15817589	          1.20891491	
          1.05000000	         -1.33860755	         14.17071004	          1.50636526	
          1.06000000	         -1.25737476	         14.11963771	          1.78863073	
          1.07000000	         -1.40624498	         14.02210016	          2.04063882	
          1.08000000	         -1.70597246	         13.90682124	          2.26312251	
          1.09000000	         -2.03005831	         13.80645349	          2.47404721	
          1.10000000	         -2.25049843	         13.75291578	          2.69158303	
          1.11000000	         -2.21952185	         13.70091493	          2.89586969	
          1.12000000	         -1.84847190	         13.57454188	          3.06986216	
          1.13000000	         -1.15096535	         13.48357273	          3.30243726	
          1.14000000	         -0.16434824	         13.36656117	          3.57106862	
          1.15000000	          1.02681178	         13.18656213	          3.86433616	
          1.16000000	          2.32225682	         12.90946110	          4.16563567	
          1.17000000	          3.62366502	         12.51572147	          4.45818569	
          1.18000000	          4.85620267	         11.99992448	          4.72809595	
          1.19000000	          5.98372508	         11.37082073	          4.96804840	
          1.20000000	          7.01602782	         10.64911333	          5.17895310	
          1.21000000	          8.00275223	          9.86207648	          5.36880405	
          1.22000000	          9.01168313	          9.03527676	          5.54936062	
          1.23000000	         10.09512087	          8.18520213	          5.73209076	
          1.24000000	         11.25548084	          7.31776222	          5.92495928	
          1.25000000	         12.42882862	          6.43469349	          6.13132664	
          1.26000000	         13.50026137	          5.54633568	          6.35646113	
          1.27000000	         14.35739397	          4.68877970	          6.61001782	
          1.28000000	         14.94375157	          3.72900914	          6.92417542	
          1.29000000	         15.14025698	          3.53884360	          7.79194881	
          1.30000000	         14.98001302	          2.79247830	          8.57290243	
          1.31000000	         14.47528171	          1.96046107	          8.99697395	
          1.32000000	         13.56207778	          0.83497664	          9.50704818	
          1.33000000	         12.24510535	          1.04122830	         10.30592576	
          1.34000000	         10.75332601	          2.73592841	         11.18950841	
          1.35000000	          8.94079812	          4.06411178	         11.57641015	
          1.36000000	          6.96310503	          4.89586498	         11.48583413	
          1.37000000	          4.98655649	          5.20297762	         11.02233519	
          1.38000000	          3.13629825	          5.11589939	         10.34180319	
          1.39000000	          1.52063831	          4.78539551	          9.58905459	
          1.40000000	          0.22281832	          4.33721158	          8.87730969	
          1.41000000	         -0.71318517	          3.86446039	          8.28048964	
          1.42000000	         -1.31079509	          3.43634820	          7.83905990	
          1.43000000	         -1.65488226	          3.08311750	          7.54505779	
          1.44000000	         -1.92160851	          2.77861709	          7.39655441	
          1.45000000	         -2.17049908	          2.62104406	          7.34411398	
          1.46000000	         -2.52755824	          2.60793616	          7.38857370	
          1.47000000	         -2.91331083	          2.61621787	          7.42653047	
          1.48000000	         -3.49700963	          2.49769266	          7.53212241	
          1.49000000	         -4.05359878	          2.38170475	          7.60170745	
          1.50000000	         -4.55075944	          2.24591453	          7.67657156	
          1.51000000	         -4.96062269	          2.09956653	          7.75562514	
          1.52000000	         -5.26499921	          1.93892166	          7.84047437	
          1.53000000	         -5.46759221	          1.76513439	          7.92957173	
          1.54000000	         -5.58206223	          1.58164897	          8.02203703	
          1.55000000	         -5.61215065	          1.39575647	          8.11894163	
          1.56000000	         -5.54950115	          1.21744059	          8.22245957	
          1.57000000	         -5.39028369	          1.05619385	          8.33283550	
          1.58000000	         -5.14933976	          0.91713122	          8.44682929	
          1.59000000	         -4.85640676	          0.79902626	          8.55909613	
          1.60000000	         -4.54432537	          0.69538674	          8.66441377	
          1.61000000	         -4.24819491	          0.59774684	          8.75794913	
          1.62000000	         -4.00883882	          0.49955714	          8.83469371	
          1.63000000	         -3.86107533	          0.39917898	          8.89108668	
          1.64000000	         -3.81183262	          0.30069779	          8.92815836	
          1.65000000	         -3.82938002	          0.21185332	          8.95281058	
          1.66000000	         -3.85552010	          0.13979736	          8.97541516	
          1.67000000	         -3.83778435	          0.08681498	          9.00464542	
